<svg width="36" height="36" viewBox="0 0 36 36" fill="none" xmlns="http://www.w3.org/2000/svg">
<g clip-path="url(#clip0_8_651)">
<path fill-rule="evenodd" clip-rule="evenodd" d="M15.1727 3.3648C17.2756 1.26567 17.9346 0.30159 18 0C18.0654 0.30159 18.7244 1.26567 20.8273 3.3648C23.7626 6.29483 23.8141 9.32767 21.9602 11.3838C20.4771 13.0288 18.6008 15.7875 18 16.6956C17.3992 15.7875 15.5229 13.0288 14.0398 11.3838C12.1859 9.32767 12.2374 6.29483 15.1727 3.3648ZM19.9012 6.2361C19.9374 6.0934 19.9565 5.94432 19.9565 5.79094C19.9565 4.75379 19.0806 3.91301 18 3.91301C16.9194 3.91301 16.0435 4.75379 16.0435 5.79094C16.0435 5.94432 16.0626 6.0934 16.0988 6.2361H16.0975L17.5385 13.4403C17.5697 13.6582 17.7644 13.8261 18 13.8261C18.235 13.8261 18.4294 13.659 18.4612 13.4419L19.9026 6.2361H19.9012ZM32.6352 15.1727C34.7343 17.2756 35.6984 17.9345 36 18C35.6984 18.0654 34.7343 18.7243 32.6352 20.8272C29.7051 23.7626 26.6723 23.8141 24.6161 21.9602C22.9712 20.4771 20.2125 18.6008 19.3043 18C20.2125 17.3992 22.9712 15.5229 24.6161 14.0398C26.6723 12.1859 29.7051 12.2374 32.6352 15.1727ZM29.7639 19.9012C29.9066 19.9373 30.0556 19.9565 30.209 19.9565C31.2462 19.9565 32.087 19.0805 32.087 18C32.087 16.9194 31.2462 16.0434 30.209 16.0434C30.0556 16.0434 29.9066 16.0626 29.7639 16.0987V16.0975L22.5597 17.5385C22.3418 17.5696 22.1739 17.7644 22.1739 18C22.1739 18.235 22.341 18.4294 22.5581 18.4612L29.7639 19.9026V19.9012ZM18 35.9999C18.0654 35.6983 18.7244 34.7343 20.8273 32.6351C23.7626 29.7051 23.8141 26.6723 21.9602 24.6161C20.4771 22.9712 18.6008 20.2125 18 19.3043C17.3992 20.2125 15.5229 22.9712 14.0398 24.6161C12.1859 26.6723 12.2374 29.7051 15.1727 32.6351C17.2756 34.7343 17.9346 35.6983 18 35.9999ZM16.0435 30.209C16.0435 30.0556 16.0626 29.9065 16.0988 29.7638H16.0974L17.5388 22.558C17.5707 22.3409 17.765 22.1739 18 22.1739C18.2356 22.1739 18.4304 22.3418 18.4615 22.5597L19.9024 29.7638H19.9012C19.9374 29.9065 19.9565 30.0556 19.9565 30.209C19.9565 31.2461 19.0806 32.0869 18 32.0869C16.9194 32.0869 16.0435 31.2461 16.0435 30.209ZM3.3648 20.8272C1.26567 18.7243 0.301589 18.0654 0 18C0.301589 17.9346 1.26567 17.2756 3.3648 15.1727C6.29483 12.2374 9.32767 12.1859 11.3838 14.0398C13.0288 15.5229 15.7875 17.3992 16.6956 18C15.7875 18.6008 13.0288 20.4771 11.3838 21.9602C9.32767 23.8141 6.29483 23.7626 3.3648 20.8272ZM6.2361 16.0988C6.0934 16.0626 5.94432 16.0435 5.79094 16.0435C4.75379 16.0435 3.91301 16.9194 3.91301 18C3.91301 19.0805 4.75379 19.9565 5.79094 19.9565C5.94432 19.9565 6.0934 19.9373 6.2361 19.9012V19.9024L13.4403 18.4615C13.6582 18.4303 13.8261 18.2356 13.8261 18C13.8261 17.765 13.659 17.5706 13.4419 17.5387L6.2361 16.0974V16.0988Z" fill="#0350FE"/>
<path fill-rule="evenodd" clip-rule="evenodd" d="M28.3633 3.76294C28.2052 3.92112 28.0704 4.09384 27.959 4.2768L27.9576 4.27544L21.9532 13.1334C21.7601 13.3889 21.7801 13.7541 22.013 13.987C22.246 14.22 22.6114 14.2399 22.8669 14.0466L31.7244 8.04227L31.7232 8.04103C31.9062 7.92963 32.0789 7.79484 32.2371 7.63665C33.3068 6.56695 33.3068 4.83263 32.2371 3.76294C31.1674 2.69324 29.433 2.69324 28.3633 3.76294ZM7.63667 3.76294C7.79485 3.92112 7.92965 4.09385 8.04105 4.2768L8.04241 4.27545L14.0468 13.1333C14.2399 13.3889 14.22 13.7541 13.9871 13.987C13.7541 14.22 13.3887 14.2399 13.1331 14.0466L4.27558 8.04228L4.27682 8.04104C4.09386 7.92963 3.92114 7.79484 3.76295 7.63665C2.69325 6.56696 2.69325 4.83263 3.76295 3.76294C4.83265 2.69324 6.56697 2.69324 7.63667 3.76294ZM8.04105 31.723C7.92965 31.9059 7.79485 32.0787 7.63667 32.2368C6.56697 33.3065 4.83265 33.3065 3.76295 32.2368C2.69325 31.1672 2.69325 29.4328 3.76295 28.3631C3.92114 28.2049 4.09386 28.0702 4.27682 27.9588L4.27557 27.9575L13.1332 21.9531C13.3887 21.7599 13.7541 21.7798 13.9871 22.0127C14.22 22.2457 14.2399 22.611 14.0467 22.8665L8.0424 31.7243L8.04105 31.723ZM28.3634 32.2369C28.2052 32.0787 28.0704 31.9059 27.959 31.723L27.9576 31.7243L21.9532 22.8665C21.7601 22.6109 21.78 22.2457 22.013 22.0127C22.2459 21.7798 22.6113 21.7599 22.8668 21.9531L31.7244 27.9575L31.7232 27.9587C31.9062 28.0702 32.0789 28.2049 32.2371 28.3631C33.3068 29.4328 33.3068 31.1672 32.2371 32.2369C31.1674 33.3065 29.433 33.3066 28.3634 32.2369Z" fill="#0350FE"/>
</g>
<defs>
<clipPath id="clip0_8_651">
<rect width="36" height="36" fill="white"/>
</clipPath>
</defs>
</svg>
